<svg viewBox="0 0 280 64" fill="none" xmlns="http://www.w3.org/2000/svg">
  <!-- Logomark (left side) -->
  <rect x="12" y="36" width="10" height="16" rx="5" fill="#06b6d4"/>
  <rect x="27" y="26" width="10" height="26" rx="5" fill="#0891b2"/>
  <rect x="42" y="16" width="10" height="36" rx="5" fill="#0e7490"/>

  <!-- "TokenBoard" wordmark as vector paths -->
  <!-- Letter T -->
  <path d="M68 20h18v5h-6v18h-6V25h-6v-5z" fill="#0f172a"/>

  <!-- Letter o -->
  <path d="M89 28c-4.4 0-8 3.2-8 7.5s3.6 7.5 8 7.5 8-3.2 8-7.5-3.6-7.5-8-7.5zm0 11c-2 0-3.5-1.6-3.5-3.5s1.5-3.5 3.5-3.5 3.5 1.6 3.5 3.5-1.5 3.5-3.5 3.5z" fill="#0f172a"/>

  <!-- Letter k -->
  <path d="M102 20h4.5v10l6-6h5.5l-6.5 6.5 7 10.5h-5.5l-4.5-7-2 2v5h-4.5V20z" fill="#0f172a"/>

  <!-- Letter e -->
  <path d="M122 28c-4.2 0-7.5 3.3-7.5 7.5s3.3 7.5 7.5 7.5c3 0 5.6-1.8 6.8-4.5h-5c-.5.8-1.4 1.3-2.5 1.3-1.7 0-3-1.2-3.3-2.8h11v-1c0-4.4-3.4-8-7.5-8zm-3.2 6c.5-1.4 1.8-2.3 3.2-2.3s2.7.9 3.2 2.3h-6.4z" fill="#0f172a"/>

  <!-- Letter n -->
  <path d="M135 28c-2.5 0-4.5 1.5-5.5 3.5V28.5h-4.5v14.5h4.5v-8c0-2 1.3-3.5 3-3.5 1.8 0 2.8 1.2 2.8 3v8.5h4.5v-9.5c0-3.8-2.3-5.5-4.8-5.5z" fill="#0f172a"/>

  <!-- Letter B -->
  <path d="M149 20h8c4.4 0 7 2.3 7 5.8 0 2-1 3.5-2.5 4.5 2 1 3.5 2.8 3.5 5.2 0 3.8-3 7.5-8 7.5h-8V20zm7.5 8.5c1.8 0 3-1 3-2.5s-1.2-2.5-3-2.5h-3v5h3zm.5 10c2 0 3.5-1.2 3.5-3s-1.5-3-3.5-3h-3.5v6h3.5z" fill="#0f172a"/>

  <!-- Letter o (second) -->
  <path d="M169 28c-4.4 0-8 3.2-8 7.5s3.6 7.5 8 7.5 8-3.2 8-7.5-3.6-7.5-8-7.5zm0 11c-2 0-3.5-1.6-3.5-3.5s1.5-3.5 3.5-3.5 3.5 1.6 3.5 3.5-1.5 3.5-3.5 3.5z" fill="#0f172a"/>

  <!-- Letter a -->
  <path d="M182 28c-3.8 0-6.5 2.5-6.5 6v9h4.5v-8.5c0-1.5 1-2.5 2.5-2.5h.5v-4h-1z" fill="#0f172a"/>

  <!-- Letter r -->
  <path d="M191 28c-2.5 0-4.2 1.3-5 3v-2.5h-4.5v14.5h4.5v-7.5c0-2.2 1.3-3.5 3-3.5s2.5 1 2.5 2.8v8.2h4.5v-9.5c0-3.5-2-5.5-5-5.5z" fill="#0f172a"/>

  <!-- Letter d -->
  <path d="M204 20v8.5c1-1.5 2.8-2.5 5-2.5 4 0 7 3.3 7 7.5s-3 7.5-7 7.5c-2.2 0-4-1-5-2.5v2h-4.5V20h4.5zm4.5 19c2 0 3.5-1.5 3.5-3.5s-1.5-3.5-3.5-3.5-3.5 1.5-3.5 3.5 1.5 3.5 3.5 3.5z" fill="#0f172a"/>
</svg>
